<svg width="151" height="25" viewBox="0 0 151 25" fill="none" xmlns="http://www.w3.org/2000/svg">
<path d="M0.275695 10.2622C0.275695 8.63018 0.651695 7.16618 1.4037 5.87018C2.1717 4.57418 3.2037 3.56618 4.4997 2.84618C5.8117 2.11018 7.2437 1.74218 8.7957 1.74218C10.5717 1.74218 12.1477 2.18218 13.5237 3.06218C14.9157 3.92618 15.9237 5.15818 16.5477 6.75818H13.2597C12.8277 5.87818 12.2277 5.22218 11.4597 4.79018C10.6917 4.35818 9.8037 4.14218 8.7957 4.14218C7.6917 4.14218 6.7077 4.39018 5.8437 4.88618C4.9797 5.38218 4.2997 6.09418 3.8037 7.02218C3.3237 7.95018 3.0837 9.03018 3.0837 10.2622C3.0837 11.4942 3.3237 12.5742 3.8037 13.5022C4.2997 14.4302 4.9797 15.1502 5.8437 15.6622C6.7077 16.1582 7.6917 16.4062 8.7957 16.4062C9.8037 16.4062 10.6917 16.1902 11.4597 15.7582C12.2277 15.3262 12.8277 14.6702 13.2597 13.7902H16.5477C15.9237 15.3902 14.9157 16.6222 13.5237 17.4862C12.1477 18.3502 10.5717 18.7822 8.7957 18.7822C7.2277 18.7822 5.7957 18.4222 4.4997 17.7022C3.2037 16.9662 2.1717 15.9502 1.4037 14.6542C0.651695 13.3582 0.275695 11.8942 0.275695 10.2622ZM22.4862 0.878183V18.6382H19.7502V0.878183H22.4862ZM31.8143 18.8542C30.5663 18.8542 29.4383 18.5742 28.4303 18.0142C27.4223 17.4382 26.6303 16.6382 26.0543 15.6142C25.4783 14.5742 25.1903 13.3742 25.1903 12.0142C25.1903 10.6702 25.4863 9.47818 26.0783 8.43818C26.6703 7.39818 27.4783 6.59818 28.5023 6.03818C29.5263 5.47818 30.6703 5.19818 31.9343 5.19818C33.1983 5.19818 34.3423 5.47818 35.3663 6.03818C36.3903 6.59818 37.1983 7.39818 37.7903 8.43818C38.3823 9.47818 38.6783 10.6702 38.6783 12.0142C38.6783 13.3582 38.3743 14.5502 37.7663 15.5902C37.1583 16.6302 36.3263 17.4382 35.2703 18.0142C34.2303 18.5742 33.0783 18.8542 31.8143 18.8542ZM31.8143 16.4782C32.5183 16.4782 33.1743 16.3102 33.7823 15.9742C34.4063 15.6382 34.9103 15.1342 35.2943 14.4622C35.6783 13.7902 35.8703 12.9742 35.8703 12.0142C35.8703 11.0542 35.6863 10.2462 35.3183 9.59018C34.9503 8.91818 34.4623 8.41418 33.8543 8.07818C33.2463 7.74218 32.5903 7.57418 31.8863 7.57418C31.1823 7.57418 30.5263 7.74218 29.9183 8.07818C29.3263 8.41418 28.8543 8.91818 28.5023 9.59018C28.1503 10.2462 27.9743 11.0542 27.9743 12.0142C27.9743 13.4382 28.3343 14.5422 29.0543 15.3262C29.7903 16.0942 30.7103 16.4782 31.8143 16.4782ZM53.359 5.41418V18.6382H50.623V17.0782C50.191 17.6222 49.623 18.0542 48.919 18.3742C48.231 18.6782 47.495 18.8302 46.711 18.8302C45.671 18.8302 44.735 18.6142 43.903 18.1822C43.087 17.7502 42.439 17.1102 41.959 16.2622C41.495 15.4142 41.263 14.3902 41.263 13.1902V5.41418H43.975V12.7822C43.975 13.9662 44.271 14.8782 44.863 15.5182C45.455 16.1422 46.263 16.4542 47.287 16.4542C48.311 16.4542 49.119 16.1422 49.711 15.5182C50.319 14.8782 50.623 13.9662 50.623 12.7822V5.41418H53.359ZM56.0569 11.9662C56.0569 10.6382 56.3289 9.46218 56.8729 8.43818C57.4329 7.41418 58.1849 6.62218 59.1289 6.06218C60.0889 5.48618 61.1529 5.19818 62.3209 5.19818C63.1849 5.19818 64.0329 5.39018 64.8649 5.77418C65.7129 6.14218 66.3849 6.63818 66.8809 7.26218V0.878183H69.6409V18.6382H66.8809V16.6462C66.4329 17.2862 65.8089 17.8142 65.0089 18.2302C64.2249 18.6462 63.3209 18.8542 62.2969 18.8542C61.1449 18.8542 60.0889 18.5662 59.1289 17.9902C58.1849 17.3982 57.4329 16.5822 56.8729 15.5422C56.3289 14.4862 56.0569 13.2942 56.0569 11.9662ZM66.8809 12.0142C66.8809 11.1022 66.6889 10.3102 66.3049 9.63818C65.9369 8.96618 65.4489 8.45418 64.8409 8.10218C64.2329 7.75018 63.5769 7.57418 62.8729 7.57418C62.1689 7.57418 61.5129 7.75018 60.9049 8.10218C60.2969 8.43818 59.8009 8.94218 59.4169 9.61418C59.0489 10.2702 58.8649 11.0542 58.8649 11.9662C58.8649 12.8782 59.0489 13.6782 59.4169 14.3662C59.8009 15.0542 60.2969 15.5822 60.9049 15.9502C61.5289 16.3022 62.1849 16.4782 62.8729 16.4782C63.5769 16.4782 64.2329 16.3022 64.8409 15.9502C65.4489 15.5982 65.9369 15.0862 66.3049 14.4142C66.6889 13.7262 66.8809 12.9262 66.8809 12.0142ZM82.2049 4.16618V9.06218H87.9649V11.2942H82.2049V16.4062H88.6849V18.6382H79.4689V1.93418H88.6849V4.16618H82.2049ZM97.7189 11.9422L101.991 18.6382H98.8949L96.0389 14.1502L93.3509 18.6382H90.4949L94.7669 12.1342L90.4949 5.41418H93.5909L96.4469 9.90218L99.1349 5.41418H101.991L97.7189 11.9422ZM106.767 7.35818C107.231 6.75018 107.863 6.23818 108.663 5.82218C109.463 5.40618 110.367 5.19818 111.375 5.19818C112.527 5.19818 113.575 5.48618 114.519 6.06218C115.479 6.62218 116.231 7.41418 116.775 8.43818C117.319 9.46218 117.591 10.6382 117.591 11.9662C117.591 13.2942 117.319 14.4862 116.775 15.5422C116.231 16.5822 115.479 17.3982 114.519 17.9902C113.575 18.5662 112.527 18.8542 111.375 18.8542C110.367 18.8542 109.471 18.6542 108.687 18.2542C107.903 17.8382 107.263 17.3262 106.767 16.7182V24.9262H104.031V5.41418H106.767V7.35818ZM114.807 11.9662C114.807 11.0542 114.615 10.2702 114.231 9.61418C113.863 8.94218 113.367 8.43818 112.743 8.10218C112.135 7.75018 111.479 7.57418 110.775 7.57418C110.087 7.57418 109.431 7.75018 108.807 8.10218C108.199 8.45418 107.703 8.96618 107.319 9.63818C106.951 10.3102 106.767 11.1022 106.767 12.0142C106.767 12.9262 106.951 13.7262 107.319 14.4142C107.703 15.0862 108.199 15.5982 108.807 15.9502C109.431 16.3022 110.087 16.4782 110.775 16.4782C111.479 16.4782 112.135 16.3022 112.743 15.9502C113.367 15.5822 113.863 15.0542 114.231 14.3662C114.615 13.6782 114.807 12.8782 114.807 11.9662ZM132.417 11.7022C132.417 12.1982 132.385 12.6462 132.321 13.0462H122.217C122.297 14.1022 122.689 14.9502 123.393 15.5902C124.097 16.2302 124.961 16.5502 125.985 16.5502C127.457 16.5502 128.497 15.9342 129.105 14.7022H132.057C131.657 15.9182 130.929 16.9182 129.873 17.7022C128.833 18.4702 127.537 18.8542 125.985 18.8542C124.721 18.8542 123.585 18.5742 122.577 18.0142C121.585 17.4382 120.801 16.6382 120.225 15.6142C119.665 14.5742 119.385 13.3742 119.385 12.0142C119.385 10.6542 119.657 9.46218 120.201 8.43818C120.761 7.39818 121.537 6.59818 122.529 6.03818C123.537 5.47818 124.689 5.19818 125.985 5.19818C127.233 5.19818 128.345 5.47018 129.321 6.01418C130.297 6.55818 131.057 7.32618 131.601 8.31818C132.145 9.29418 132.417 10.4222 132.417 11.7022ZM129.561 10.8382C129.545 9.83018 129.185 9.02218 128.481 8.41418C127.777 7.80618 126.905 7.50218 125.865 7.50218C124.921 7.50218 124.113 7.80618 123.441 8.41418C122.769 9.00618 122.369 9.81418 122.241 10.8382H129.561ZM137.846 7.33418C138.246 6.66218 138.774 6.14218 139.43 5.77418C140.102 5.39018 140.894 5.19818 141.806 5.19818V8.03018H141.11C140.038 8.03018 139.222 8.30218 138.662 8.84618C138.118 9.39018 137.846 10.3342 137.846 11.6782V18.6382H135.11V5.41418H137.846V7.33418ZM147.513 7.64618V14.9662C147.513 15.4622 147.625 15.8222 147.849 16.0462C148.089 16.2542 148.489 16.3582 149.049 16.3582H150.729V18.6382H148.569C147.337 18.6382 146.393 18.3502 145.737 17.7742C145.081 17.1982 144.753 16.2622 144.753 14.9662V7.64618H143.193V5.41418H144.753V2.12618H147.513V5.41418H150.729V7.64618H147.513Z" fill="black"/>
</svg>
