<svg width="112" height="33" viewBox="0 0 112 33" fill="none" xmlns="http://www.w3.org/2000/svg">
<g clip-path="url(#clip0_359_1304)">
<path fill-rule="evenodd" clip-rule="evenodd" d="M16.3874 11.1381C17.4443 11.1375 18.479 11.4416 19.3675 12.0139C20.2559 12.5863 20.9606 13.4027 21.397 14.3653C21.8333 15.3279 21.983 16.3958 21.8279 17.4413C21.6729 18.4867 21.2197 19.4653 20.5227 20.2598C20.3897 19.5579 20.0807 18.9013 19.6246 18.3514C19.1685 17.8016 18.5802 17.3765 17.915 17.1161C18.2703 16.8053 18.5224 16.3935 18.6375 15.9356C18.7527 15.4778 18.7254 14.9957 18.5594 14.5538C18.3934 14.1119 18.0966 13.7311 17.7085 13.4623C17.3204 13.1935 16.8595 13.0495 16.3874 13.0495C15.9154 13.0495 15.4545 13.1935 15.0664 13.4623C14.6783 13.7311 14.3814 14.1119 14.2154 14.5538C14.0494 14.9957 14.0222 15.4778 14.1373 15.9356C14.2525 16.3935 14.5045 16.8053 14.8599 17.1161C14.1947 17.3766 13.6065 17.8017 13.1503 18.3515C12.6941 18.9014 12.385 19.558 12.2517 20.2598C11.5549 19.4652 11.1018 18.4866 10.9469 17.4412C10.7919 16.3958 10.9416 15.3278 11.3781 14.3653C11.8145 13.4027 12.5191 12.5864 13.4075 12.014C14.296 11.4417 15.3306 11.1375 16.3874 11.1381ZM16.3874 23.6381C17.7719 23.6381 19.1253 23.2275 20.2764 22.4584C21.4276 21.6892 22.3248 20.5959 22.8546 19.3169C23.3844 18.0378 23.523 16.6303 23.2529 15.2724C22.9828 13.9146 22.3162 12.6673 21.3372 11.6883C20.3582 10.7094 19.1109 10.0427 17.7531 9.77258C16.3952 9.50248 14.9877 9.64111 13.7087 10.1709C12.4296 10.7007 11.3363 11.5979 10.5671 12.7491C9.79798 13.9002 9.38744 15.2536 9.38744 16.6381C9.38945 18.494 10.1276 20.2733 11.4399 21.5856C12.7522 22.8979 14.5315 23.6361 16.3874 23.6381ZM16.3874 7.25533C11.2135 7.25533 7.004 11.4648 7.004 16.6383C7.004 21.8118 11.2135 26.0211 16.3874 26.0211C21.5614 26.0211 25.7704 21.812 25.7704 16.6381C25.7704 11.4641 21.5609 7.25514 16.3874 7.25514V7.25533ZM4.03506 25.3432C3.22249 25.3422 2.43279 25.6123 1.79099 26.1106C1.14918 26.609 0.691925 27.3072 0.491609 28.0947C0.291292 28.8822 0.359356 29.714 0.685026 30.4584C1.0107 31.2029 1.57537 31.8175 2.28965 32.2049C3.00394 32.5923 3.82703 32.7303 4.62863 32.5973C5.43023 32.4642 6.16456 32.0676 6.71535 31.4701C7.26615 30.8727 7.60195 30.1087 7.6696 29.2989C7.73726 28.4892 7.5329 27.68 7.08887 26.9995L9.25231 24.8495C11.2315 26.5737 13.768 27.5228 16.3929 27.5214C19.0178 27.52 21.5533 26.5682 23.5306 24.8418L25.6869 26.9981C25.193 27.7543 24.997 28.6666 25.1365 29.5589C25.2761 30.4512 25.7414 31.2602 26.4426 31.8294C27.1438 32.3987 28.031 32.6879 28.933 32.6412C29.8349 32.5945 30.6875 32.2152 31.3261 31.5765C31.9648 30.9379 32.344 30.0852 32.3907 29.1833C32.4373 28.2813 32.1481 27.3941 31.5788 26.693C31.0095 25.9918 30.2005 25.5266 29.3082 25.387C28.4159 25.2475 27.5035 25.4436 26.7474 25.9375L24.5911 23.7813C26.317 21.8042 27.2687 19.2692 27.2703 16.6449C27.272 14.0206 26.3234 11.4844 24.6001 9.5052L26.7487 7.33951C27.5053 7.83346 28.4182 8.02949 29.3109 7.88973C30.2035 7.74997 31.0128 7.28434 31.5822 6.58278C32.1516 5.88123 32.4408 4.99353 32.394 4.09118C32.3472 3.18884 31.9676 2.33586 31.3286 1.69704C30.6896 1.05822 29.8365 0.678878 28.9341 0.632302C28.0317 0.585725 27.1441 0.875216 26.4427 1.44485C25.7414 2.01449 25.276 2.82384 25.1365 3.71658C24.997 4.60931 25.1933 5.52206 25.6874 6.27851L23.5405 8.44333C21.5622 6.71195 19.023 5.75685 16.3941 5.75521C13.7651 5.75357 11.2248 6.70549 9.24431 8.43439L7.08806 6.27814C7.58206 5.52194 7.77827 4.60949 7.6388 3.71707C7.49933 2.82465 7.03407 2.01558 6.3329 1.44617C5.63174 0.876749 4.74442 0.587393 3.84237 0.633996C2.94032 0.6806 2.08754 1.05985 1.44879 1.6985C0.810035 2.33714 0.43063 3.18984 0.383867 4.09189C0.337105 4.99393 0.626304 5.8813 1.1956 6.58256C1.76489 7.28383 2.57387 7.74923 3.46627 7.88886C4.35867 8.02849 5.27115 7.83244 6.02744 7.33858L8.18369 9.49483C6.45474 11.4748 5.50265 14.0148 5.50405 16.6434C5.50546 19.2721 6.46025 21.811 8.19131 23.7891L6.02837 25.9381C5.43627 25.5494 4.74333 25.3426 4.03506 25.3432Z" fill="#008274"/>
</g>
<path d="M53.2837 26.6382V11.6382H48.6517V8.75818H61.1317V11.6382H56.5717V26.6382H53.2837ZM65.3898 26.9262C64.4778 26.9262 63.6858 26.7742 63.0138 26.4702C62.3418 26.1662 61.8218 25.7342 61.4538 25.1742C61.0858 24.5982 60.9018 23.9342 60.9018 23.1822C60.9018 22.4622 61.0618 21.8222 61.3818 21.2622C61.7018 20.6862 62.1978 20.2062 62.8698 19.8222C63.5418 19.4382 64.3898 19.1662 65.4138 19.0062L69.6858 18.3102V20.7102L66.0138 21.3342C65.3898 21.4462 64.9258 21.6462 64.6218 21.9342C64.3178 22.2222 64.1658 22.5982 64.1658 23.0622C64.1658 23.5102 64.3338 23.8702 64.6698 24.1422C65.0218 24.3982 65.4538 24.5262 65.9658 24.5262C66.6218 24.5262 67.1978 24.3902 67.6938 24.1182C68.2058 23.8302 68.5978 23.4382 68.8698 22.9422C69.1578 22.4462 69.3018 21.9022 69.3018 21.3102V17.9502C69.3018 17.3902 69.0778 16.9262 68.6298 16.5582C68.1978 16.1742 67.6218 15.9822 66.9018 15.9822C66.2298 15.9822 65.6298 16.1662 65.1018 16.5342C64.5898 16.8862 64.2138 17.3582 63.9738 17.9502L61.4058 16.7022C61.6618 16.0142 62.0618 15.4222 62.6058 14.9262C63.1658 14.4142 63.8218 14.0142 64.5738 13.7262C65.3258 13.4382 66.1418 13.2942 67.0218 13.2942C68.0938 13.2942 69.0378 13.4942 69.8538 13.8942C70.6698 14.2782 71.3018 14.8222 71.7498 15.5262C72.2138 16.2142 72.4458 17.0222 72.4458 17.9502V26.6382H69.4698V24.4062L70.1418 24.3582C69.8058 24.9182 69.4058 25.3902 68.9418 25.7742C68.4778 26.1422 67.9498 26.4302 67.3578 26.6382C66.7658 26.8302 66.1098 26.9262 65.3898 26.9262ZM74.2237 26.6382V24.0942L81.8077 15.3102L82.2877 16.3902H74.5597V13.5822H85.0717V16.1502L77.6317 24.9342L77.1517 23.8542H85.1197V26.6382H74.2237ZM85.7784 26.6382V24.0942L93.3624 15.3102L93.8424 16.3902H86.1144V13.5822H96.6264V16.1502L89.1864 24.9342L88.7064 23.8542H96.6744V26.6382H85.7784ZM102.421 26.9262C101.509 26.9262 100.717 26.7742 100.045 26.4702C99.3731 26.1662 98.8531 25.7342 98.4851 25.1742C98.1171 24.5982 97.9331 23.9342 97.9331 23.1822C97.9331 22.4622 98.0931 21.8222 98.4131 21.2622C98.7331 20.6862 99.2291 20.2062 99.9011 19.8222C100.573 19.4382 101.421 19.1662 102.445 19.0062L106.717 18.3102V20.7102L103.045 21.3342C102.421 21.4462 101.957 21.6462 101.653 21.9342C101.349 22.2222 101.197 22.5982 101.197 23.0622C101.197 23.5102 101.365 23.8702 101.701 24.1422C102.053 24.3982 102.485 24.5262 102.997 24.5262C103.653 24.5262 104.229 24.3902 104.725 24.1182C105.237 23.8302 105.629 23.4382 105.901 22.9422C106.189 22.4462 106.333 21.9022 106.333 21.3102V17.9502C106.333 17.3902 106.109 16.9262 105.661 16.5582C105.229 16.1742 104.653 15.9822 103.933 15.9822C103.261 15.9822 102.661 16.1662 102.133 16.5342C101.621 16.8862 101.245 17.3582 101.005 17.9502L98.4371 16.7022C98.6931 16.0142 99.0931 15.4222 99.6371 14.9262C100.197 14.4142 100.853 14.0142 101.605 13.7262C102.357 13.4382 103.173 13.2942 104.053 13.2942C105.125 13.2942 106.069 13.4942 106.885 13.8942C107.701 14.2782 108.333 14.8222 108.781 15.5262C109.245 16.2142 109.477 17.0222 109.477 17.9502V26.6382H106.501V24.4062L107.173 24.3582C106.837 24.9182 106.437 25.3902 105.973 25.7742C105.509 26.1422 104.981 26.4302 104.389 26.6382C103.797 26.8302 103.141 26.9262 102.421 26.9262Z" fill="#008274"/>
<defs>
<clipPath id="clip0_359_1304">
<rect width="32" height="32" fill="white" transform="translate(0.387695 0.638184)"/>
</clipPath>
</defs>
</svg>
