<svg width="57" height="57" viewBox="0 0 57 57" fill="none" xmlns="http://www.w3.org/2000/svg">
<path d="M12.6045 35.8324C12.6045 41.1475 15.9306 44.9116 21.2615 44.9116H36.5163C41.8494 44.9116 45.1573 41.1475 45.1573 35.8324V21.4563C45.1573 16.1254 41.8494 12.3589 36.5163 12.3589H21.2615C15.9465 12.3589 12.6045 16.1254 12.6045 21.4563V35.8324Z" fill="white" fill-opacity="0.2" stroke="white" stroke-width="3.5" stroke-linecap="round" stroke-linejoin="round"/>
<path d="M23.3193 49.6329V44.9175M34.4585 49.6329V44.9175" stroke="white" stroke-width="3.5" stroke-linecap="round" stroke-linejoin="round"/>
<path d="M12.6033 23.0776H7.8877M12.6033 34.199H7.8877" stroke="white" stroke-width="3.5" stroke-linecap="round" stroke-linejoin="round"/>
<path d="M23.3193 12.3635V7.64795M34.4585 12.3635V7.64795" stroke="white" stroke-width="3.5" stroke-linecap="round" stroke-linejoin="round"/>
<path d="M49.8872 23.0776H45.1533M49.8872 34.199H45.1533" stroke="white" stroke-width="3.5" stroke-linecap="round" stroke-linejoin="round"/>
<path d="M19.417 35.0343L25.0147 22.2397L30.7731 35.0343" stroke="white" stroke-width="3.5" stroke-linecap="round" stroke-linejoin="round"/>
<path d="M20.917 31.7417H29.2734" stroke="white" stroke-width="3.5"/>
<path d="M36.9502 35.0323V22.7085" stroke="white" stroke-width="3.5" stroke-linecap="round" stroke-linejoin="round"/>
</svg>
