<svg width="57" height="57" viewBox="0 0 57 57" fill="none" xmlns="http://www.w3.org/2000/svg">
<path d="M43.7606 16.079L43.7629 41.195C43.7629 45.8582 39.9829 49.6382 35.3198 49.6382H22.4519C17.7911 49.6382 14.0111 45.8582 14.0111 41.1973L14.0088 16.0813C14.0088 11.4182 17.7888 7.63818 22.4497 7.63818H35.3198C39.9806 7.63818 43.7606 11.4182 43.7606 16.079Z" fill="white" fill-opacity="0.2" stroke="white" stroke-width="3.5" stroke-linecap="round" stroke-linejoin="round"/>
<path d="M25.6436 16.2476H32.1389" stroke="white" stroke-width="3.5" stroke-linecap="round" stroke-linejoin="round"/>
<path d="M28.8875 41.0756V40.9631M28.8875 40.3726C28.565 40.3726 28.3037 40.6339 28.3037 40.9554C28.3037 41.2779 28.565 41.5392 28.8875 41.5392C29.2102 41.5392 29.4715 41.2779 29.4715 40.9554C29.4715 40.6339 29.2102 40.3726 28.8875 40.3726Z" stroke="white" stroke-width="3.5" stroke-linecap="round" stroke-linejoin="round"/>
</svg>
