<svg width="57" height="57" viewBox="0 0 57 57" fill="none" xmlns="http://www.w3.org/2000/svg">
<path d="M20.9579 7.63818H40.6378C47.5165 7.63818 51.7956 12.494 51.7956 19.3658V37.9083C51.7956 44.7802 47.5165 49.6359 40.6355 49.6359H20.9579C14.0794 49.6359 9.79785 44.7802 9.79785 37.9083V19.3658C9.79785 12.494 14.0998 7.63818 20.9579 7.63818Z" fill="white" fill-opacity="0.2" stroke="white" stroke-width="3.5" stroke-linecap="round" stroke-linejoin="round"/>
<path d="M34.749 31.4136H42.9852M34.749 39.1273H42.9852" stroke="white" stroke-width="3.5" stroke-linecap="round" stroke-linejoin="round"/>
<path fill-rule="evenodd" clip-rule="evenodd" d="M24.7739 39.696H21.2959C19.8135 39.696 18.6104 38.495 18.6104 37.0103V33.5348C18.6104 32.0501 19.8135 30.8491 21.2959 30.8491H24.7739C26.2562 30.8491 27.4595 32.0501 27.4595 33.5348V37.0103C27.4595 38.495 26.2562 39.696 24.7739 39.696Z" stroke="white" stroke-width="3.5" stroke-linecap="round" stroke-linejoin="round"/>
<path d="M17.6011 15.9194H17.4717M23.4006 15.9194H23.2712M29.2001 15.9194H29.0706" stroke="white" stroke-width="3.5" stroke-linecap="round" stroke-linejoin="round"/>
<path d="M51.7956 22.7866H9.79785" stroke="white" stroke-width="3.5" stroke-linecap="round" stroke-linejoin="round"/>
</svg>
