<svg width="41" height="41" viewBox="0 0 41 41" fill="none" xmlns="http://www.w3.org/2000/svg">
<path d="M20.2212 9.69721C20.2212 7.64645 21.8725 5.98413 23.909 5.98413C25.8625 5.98413 27.4607 7.51323 27.5882 9.44736C28.0394 9.30443 28.519 9.22728 29.016 9.22728C31.6384 9.22728 33.7635 11.3673 33.7635 14.0069C33.7635 15.2045 33.3269 16.299 32.6035 17.1378C38.548 23.9447 33.2805 31.9922 27.5969 31.6359C27.5667 33.6601 25.9269 35.2916 23.909 35.2916C21.8725 35.2916 20.2212 33.6292 20.2212 31.5786V9.69721Z" fill="white" fill-opacity="0.2" stroke="white" stroke-width="1.5" stroke-linecap="round" stroke-linejoin="round"/>
<path d="M20.2212 9.69721C20.2212 7.64645 18.5699 5.98413 16.5334 5.98413C14.5799 5.98413 12.9816 7.51323 12.8542 9.44736C12.4031 9.30443 11.9233 9.22728 11.4263 9.22728C8.8041 9.22728 6.6788 11.3673 6.6788 14.0069C6.6788 15.2045 7.1156 16.299 7.83883 17.1378C1.8944 23.9447 7.16185 31.9922 12.8456 31.6359C12.8757 33.6601 14.5155 35.2916 16.5334 35.2916C18.5699 35.2916 20.2212 33.6292 20.2212 31.5786" stroke="white" stroke-width="1.5" stroke-linecap="round" stroke-linejoin="round"/>
<path d="M30.1958 18.5988C31.1455 18.3727 31.9818 17.8513 32.6038 17.1362" stroke="white" stroke-width="1.5" stroke-linecap="round" stroke-linejoin="round"/>
<path d="M10.2405 18.5988C9.29084 18.3727 8.45457 17.8513 7.83252 17.1362" stroke="white" stroke-width="1.5" stroke-linecap="round" stroke-linejoin="round"/>
<path d="M24.469 13.5151C23.6813 15.827 17.7262 16.8576 15.9751 13.6278" stroke="white" stroke-width="1.5" stroke-linecap="round" stroke-linejoin="round"/>
<path d="M25.7854 26.3739C24.7534 23.3444 16.9496 21.9937 14.6548 26.2262" stroke="white" stroke-width="1.5" stroke-linecap="round" stroke-linejoin="round"/>
</svg>
