<svg width="121" height="121" viewBox="0 0 121 121" fill="none" xmlns="http://www.w3.org/2000/svg">
<path d="M60.2212 27.8155C60.2212 21.6632 65.1752 16.6763 71.2847 16.6763C77.1452 16.6763 81.9397 21.2636 82.3222 27.066C83.6757 26.6372 85.1147 26.4057 86.6057 26.4057C94.4727 26.4057 100.848 32.8257 100.848 40.7447C100.848 44.3375 99.5382 47.621 97.3682 50.1372C115.202 70.5581 99.3992 94.7006 82.3482 93.6316C82.2577 99.7041 77.3382 104.599 71.2847 104.599C65.1752 104.599 60.2212 99.6116 60.2212 93.4596V27.8155Z" fill="white" fill-opacity="0.2" stroke="white" stroke-width="3" stroke-linecap="round" stroke-linejoin="round"/>
<path d="M60.2212 27.8155C60.2212 21.6632 55.2672 16.6763 49.1577 16.6763C43.2974 16.6763 38.5026 21.2636 38.1202 27.066C36.7668 26.6372 35.3275 26.4057 33.8367 26.4057C25.9699 26.4057 19.594 32.8257 19.594 40.7447C19.594 44.3375 20.9044 47.621 23.0741 50.1372C5.2408 70.5581 21.0432 94.7006 38.0944 93.6316C38.1847 99.7041 43.1041 104.599 49.1577 104.599C55.2672 104.599 60.2212 99.6116 60.2212 93.4596" stroke="white" stroke-width="3" stroke-linecap="round" stroke-linejoin="round"/>
<path d="M90.145 54.5206C92.994 53.8421 95.503 52.2781 97.369 50.1328" stroke="white" stroke-width="3" stroke-linecap="round" stroke-linejoin="round"/>
<path d="M30.279 54.5206C27.4301 53.8421 24.9213 52.2781 23.0552 50.1328" stroke="white" stroke-width="3" stroke-linecap="round" stroke-linejoin="round"/>
<path d="M72.9627 39.2686C70.5997 46.204 52.7342 49.296 47.481 39.6065" stroke="white" stroke-width="3" stroke-linecap="round" stroke-linejoin="round"/>
<path d="M76.9138 77.8453C73.8178 68.7568 50.4063 64.7048 43.522 77.4023" stroke="white" stroke-width="3" stroke-linecap="round" stroke-linejoin="round"/>
</svg>
