<svg width="41" height="41" viewBox="0 0 41 41" fill="none" xmlns="http://www.w3.org/2000/svg">
<path d="M23.3363 14.9193C24.3338 13.9112 25.9529 13.9129 26.9506 14.921C27.9481 15.9291 27.9498 17.5652 26.9522 18.5733C25.9545 19.5815 24.3356 19.5797 23.3379 18.5717C22.3402 17.5636 22.3387 15.9274 23.3363 14.9193Z" stroke="white" stroke-width="1.5" stroke-linecap="round" stroke-linejoin="round"/>
<path d="M33.5244 7.62651C24.8824 7.03336 14.2181 15.0944 13.071 24.166C13.0445 24.9584 13.3307 25.7077 13.8665 26.2492L16.0312 28.4367C16.567 28.9781 17.3086 29.2674 18.0928 29.2405C27.0696 28.0805 35.0466 17.3048 34.4597 8.57161C34.425 8.05568 34.035 7.66156 33.5244 7.62651Z" fill="white" fill-opacity="0.2" stroke="white" stroke-width="1.5" stroke-linecap="round" stroke-linejoin="round"/>
<path d="M28.0647 24.1196L27.5664 31.2083C27.5664 31.8236 27.2222 32.3862 26.6776 32.6615L22.7929 34.6243C22.376 34.835 21.8891 34.8524 21.4586 34.6721C21.0279 34.4919 20.6959 34.1316 20.5485 33.6847L18.7314 29.1987" stroke="white" stroke-width="1.5" stroke-linecap="round" stroke-linejoin="round"/>
<path d="M18.2438 14.2007L11.2258 14.6555C10.6167 14.6512 10.0576 14.9951 9.78152 15.5436L7.81244 19.4555C7.60111 19.8754 7.58048 20.3672 7.7559 20.8037C7.9313 21.24 8.28547 21.5781 8.72665 21.7301L13.1534 23.5971" stroke="white" stroke-width="1.5" stroke-linecap="round" stroke-linejoin="round"/>
<path d="M13.7224 31.6105C13.2943 34.4897 9.95892 33.9528 7.78418 34.283C8.1109 32.0853 7.59776 28.7333 10.447 28.3008" stroke="white" stroke-width="1.5" stroke-linecap="round" stroke-linejoin="round"/>
</svg>
