<svg width="117" height="121" viewBox="0 0 117 121" fill="none" xmlns="http://www.w3.org/2000/svg">
<path fill-rule="evenodd" clip-rule="evenodd" d="M64.3223 29.6668C64.3223 25.9084 61.2628 22.8701 57.4783 22.8701C53.6987 22.8701 50.6392 25.9084 50.6392 29.6668C50.6392 33.4156 53.6987 36.4589 57.4783 36.4589C61.2628 36.4589 64.3223 33.4156 64.3223 29.6668Z" stroke="white" stroke-width="3" stroke-linecap="round" stroke-linejoin="round"/>
<path d="M50.7589 30.77L16.4517 36.4485M98.5315 22.8452L64.2245 28.5237" stroke="white" stroke-width="3" stroke-linecap="round" stroke-linejoin="round"/>
<path d="M22.9829 101.151H91.9931" stroke="white" stroke-width="3" stroke-linecap="round" stroke-linejoin="round"/>
<path d="M43.2974 88.6735H71.6688M57.483 88.6735V36.4639" stroke="white" stroke-width="3" stroke-linecap="round" stroke-linejoin="round"/>
<path fill-rule="evenodd" clip-rule="evenodd" d="M15.0532 71.4469L27.9437 45.2197L40.984 71.4469C33.415 81.7813 19.9639 80.9269 15.0532 71.4469Z" fill="white" fill-opacity="0.2" stroke="white" stroke-width="3" stroke-linecap="round" stroke-linejoin="round"/>
<path fill-rule="evenodd" clip-rule="evenodd" d="M76.1177 61.5611L89.0082 35.334L102.049 61.5611C94.4795 71.8907 81.0283 71.0411 76.1177 61.5611Z" fill="white" fill-opacity="0.2" stroke="white" stroke-width="3" stroke-linecap="round" stroke-linejoin="round"/>
</svg>
