<svg width="117" height="121" viewBox="0 0 117 121" fill="none" xmlns="http://www.w3.org/2000/svg">
<path d="M96.8664 64.2249C96.8664 41.7848 78.548 23.5977 55.957 23.5977C33.3612 23.5977 15.043 41.7848 15.043 64.2249C15.043 86.6649 33.3612 104.852 55.957 104.852C78.548 104.852 96.8664 86.6649 96.8664 64.2249Z" stroke="white" stroke-width="3" stroke-linecap="round" stroke-linejoin="round"/>
<path d="M78.1138 64.2228C78.1138 52.0644 68.1905 42.2148 55.9573 42.2148C43.7195 42.2148 33.7969 52.0644 33.7969 64.2228C33.7969 76.3716 43.7195 86.226 55.9573 86.226C68.1905 86.226 78.1138 76.3716 78.1138 64.2228Z" fill="white" fill-opacity="0.2" stroke="white" stroke-width="3" stroke-linecap="round" stroke-linejoin="round"/>
<path d="M91.8352 29.2743L57.2285 63.647M91.8352 29.2743H102.053M91.8352 29.2743V19.1367" stroke="white" stroke-width="3" stroke-linecap="round" stroke-linejoin="round"/>
</svg>
