<svg width="65" height="65" viewBox="0 0 65 65" fill="none" xmlns="http://www.w3.org/2000/svg">
<g clip-path="url(#clip0_359_859)">
<path d="M52.812 30.2214H41.5205V18.9751H52.812V30.2214Z" fill="#02523B"/>
<path d="M47.1653 22.5886H35.9189V2.85107H47.1653V22.5886Z" fill="#A8C0B9"/>
<path d="M46.8952 17.9816L38.2685 25.2533L31.042 16.6267L39.6687 9.35498L46.8952 17.9816Z" fill="#02523B"/>
<path d="M37.6806 15.7687L29.0539 23.0404L16.3623 7.90989L24.989 0.638184L37.6806 15.7687Z" fill="#A8C0B9"/>
<path d="M34.5188 12.4263L32.5766 23.5371L21.4658 21.5498L23.4531 10.439L34.5188 12.4263Z" fill="#02523B"/>
<path d="M26.0268 16.6264L24.0846 27.7372L4.61816 24.3046L6.60546 13.1938L26.0268 16.6264Z" fill="#A8C0B9"/>
<path d="M21.4658 16.0845L27.1115 25.8403L17.3557 31.486L11.71 21.7302L21.4658 16.0845Z" fill="#02523B"/>
<path d="M17.6716 24.8013L23.3173 34.5571L6.19944 44.4484L0.553711 34.6474L17.6716 24.8013Z" fill="#A8C0B9"/>
<path d="M13.8325 27.3315L24.4013 31.1706L20.5622 41.7846L9.94824 37.9003L13.8325 27.3315Z" fill="#02523B"/>
<path d="M16.4963 36.4097L27.1103 40.2488L20.3354 58.8119L9.7666 54.9728L16.4963 36.4097Z" fill="#A8C0B9"/>
<path d="M15.1865 40.8359L25.7553 36.9517L29.6396 47.5656L19.0256 51.4047L15.1865 40.8359Z" fill="#02523B"/>
<path d="M23.0908 46.0752L33.6596 42.1909L40.4345 60.7541L29.8205 64.6383L23.0908 46.0752Z" fill="#A8C0B9"/>
<path d="M24.8975 50.3208L30.5432 40.5649L40.299 46.1655L34.6533 55.9213L24.8975 50.3208Z" fill="#02523B"/>
<path d="M34.3369 49.2368L39.9375 39.481L57.0553 49.3723L51.4096 59.1281L34.3369 49.2368Z" fill="#A8C0B9"/>
<path d="M38.4473 51.3142L36.46 40.2034L47.5708 38.2612L49.5581 49.372L38.4473 51.3142Z" fill="#02523B"/>
<path d="M44.9509 44.4492L43.0088 33.3384L62.4753 29.9058L64.4174 41.0165L44.9509 44.4492Z" fill="#A8C0B9"/>
<path d="M49.4675 43.3644L40.8408 36.1379L48.0674 27.5112L56.694 34.7378L49.4675 43.3644Z" fill="#02523B"/>
<path d="M50.0554 33.9252L41.4287 26.6987L54.1203 11.5229L62.747 18.7947L50.0554 33.9252Z" fill="#A8C0B9"/>
<path d="M52.81 30.2214H41.5186V18.9751H52.81V30.2214Z" fill="#02523B"/>
<path d="M41.5637 22.5889H47.1643V18.7949L46.0803 18.7046L41.5186 22.363L41.5637 22.5889Z" fill="#A8C0B9"/>
</g>
<defs>
<clipPath id="clip0_359_859">
<rect width="64" height="64" fill="white" transform="translate(0.887695 0.638184)"/>
</clipPath>
</defs>
</svg>
