<svg width="121" height="121" viewBox="0 0 121 121" fill="none" xmlns="http://www.w3.org/2000/svg">
<path d="M47.4424 98.46C42.9674 98.46 40.2632 95.2405 40.0718 90.7565C40.0718 81.6295 48.9819 78.481 62.4071 78.375C75.8561 78.5165 84.7901 81.665 84.7421 90.7565C84.5266 95.2405 81.8386 98.46 77.3716 98.46H47.4424Z" fill="white" fill-opacity="0.2" stroke="white" stroke-width="3" stroke-miterlimit="10"/>
<path d="M62.4106 66.8026C68.8586 66.8026 74.0856 61.5756 74.0856 55.1281C74.0856 48.6801 68.8586 43.4531 62.4106 43.4531C55.9626 43.4531 50.7358 48.6801 50.7358 55.1281C50.7358 61.5756 55.9626 66.8026 62.4106 66.8026Z" fill="white" fill-opacity="0.2" stroke="white" stroke-width="3" stroke-miterlimit="10"/>
<path d="M35.1898 55.0547C24.0425 55.1427 16.644 57.7572 16.644 65.3357C16.803 69.0592 19.0483 71.7322 22.7641 71.7322H37.2" stroke="white" stroke-width="3" stroke-miterlimit="10" stroke-linecap="round" stroke-linejoin="round"/>
<path d="M88.0955 55.0552C99.243 55.1432 106.641 57.7577 106.641 65.3362C106.482 69.0597 104.237 71.7327 100.521 71.7327H86.0854" stroke="white" stroke-width="3" stroke-miterlimit="10" stroke-linecap="round" stroke-linejoin="round"/>
<path d="M33.8635 42.2162C39.2173 42.2162 43.5575 37.876 43.5575 32.5222C43.5575 27.1683 39.2173 22.8281 33.8635 22.8281C28.5096 22.8281 24.1694 27.1683 24.1694 32.5222C24.1694 37.876 28.5096 42.2162 33.8635 42.2162Z" fill="white" fill-opacity="0.2" stroke="white" stroke-width="3" stroke-miterlimit="10"/>
<path d="M89.4259 42.2162C84.0719 42.2162 79.7319 37.876 79.7319 32.5222C79.7319 27.1683 84.0719 22.8281 89.4259 22.8281C94.7799 22.8281 99.1199 27.1683 99.1199 32.5222C99.1199 37.876 94.7799 42.2162 89.4259 42.2162Z" fill="white" fill-opacity="0.2" stroke="white" stroke-width="3" stroke-miterlimit="10"/>
</svg>
