<svg width="65" height="65" viewBox="0 0 65 65" fill="none" xmlns="http://www.w3.org/2000/svg">
<g clip-path="url(#clip0_359_727)">
<path d="M22.8018 10.1644L29.4656 0.638184L38.9471 7.30205L32.328 16.7835L22.8018 10.1644Z" fill="#B6CEFF"/>
<path d="M23.5166 18.2144L30.1805 8.73291L39.6619 15.3521L33.0428 24.8783L23.5166 18.2144Z" fill="#B6CEFF"/>
<path d="M10.637 22.24L9.6084 10.7012L21.1472 9.71729L22.1758 21.2561L10.637 22.24Z" fill="#B6CEFF"/>
<path d="M16.3617 27.9646L15.333 16.4258L26.9165 15.4419L27.9004 26.9807L16.3617 27.9646Z" fill="#0049DA"/>
<path d="M9.07218 39.3695L0.887695 31.185L9.07218 23.0005L17.2567 31.185L9.07218 39.3695Z" fill="#B6CEFF"/>
<path d="M17.123 40.0851L8.93848 31.8559L17.123 23.6714L25.3522 31.8559L17.123 40.0851Z" fill="#0049DA"/>
<path d="M18.8659 53.502L7.32715 52.4734L8.35579 40.9346L19.8946 41.9185L18.8659 53.502Z" fill="#B6CEFF"/>
<path d="M25.4851 48.8059L13.9463 47.822L14.975 36.2832L26.5137 37.2671L25.4851 48.8059Z" fill="#0049DA"/>
<path d="M35.4588 57.9742L25.9774 64.638L19.3135 55.1565L28.795 48.4927L35.4588 57.9742Z" fill="#B6CEFF"/>
<path d="M37.5604 50.148L28.0342 56.8118L21.415 47.3304L30.8965 40.6665L37.5604 50.148Z" fill="#0049DA"/>
<path d="M51.0671 50.7743L48.0706 61.9553L36.8896 58.9588L39.8861 47.7778L51.0671 50.7743Z" fill="#B6CEFF"/>
<path d="M47.6238 43.4394L44.6273 54.6204L33.4463 51.6239L36.4428 40.4429L47.6238 43.4394Z" fill="#0049DA"/>
<path d="M58.357 35.2104L63.2767 45.7206L52.7665 50.6402L47.8916 40.1301L58.357 35.2104Z" fill="#B6CEFF"/>
<path d="M51.0228 31.811L55.9425 42.3212L45.4323 47.2408L40.5127 36.7307L51.0228 31.811Z" fill="#0049DA"/>
<path d="M53.9755 18.6167L64.4856 23.4916L59.6107 34.0017L49.1006 29.1268L53.9755 18.6167Z" fill="#B6CEFF"/>
<path d="M46.1493 20.7192L56.6594 25.6389L51.7845 36.149L41.2744 31.2294L46.1493 20.7192Z" fill="#0049DA"/>
<path d="M39.9326 8.68841L51.1136 5.69189L54.1548 16.9176L42.9291 19.9141L39.9326 8.68841Z" fill="#B6CEFF"/>
<path d="M35.3252 15.3525L46.5062 12.356L49.5027 23.537L38.3217 26.5335L35.3252 15.3525Z" fill="#0049DA"/>
<path d="M22.8018 10.1644L29.4656 0.638184L38.9471 7.30205L32.328 16.7835L22.8018 10.1644Z" fill="#B6CEFF"/>
<path d="M23.5166 18.2144L30.1805 8.73291L39.6619 15.3521L33.0428 24.8783L23.5166 18.2144Z" fill="#0049DA"/>
</g>
<defs>
<clipPath id="clip0_359_727">
<rect width="64" height="64" fill="white" transform="translate(0.887695 0.638184)"/>
</clipPath>
</defs>
</svg>
