<svg width="48" height="49" viewBox="0 0 48 49" fill="none" xmlns="http://www.w3.org/2000/svg">
<path d="M24 5.75C20.2916 5.75 16.6665 6.84967 13.5831 8.90994C10.4996 10.9702 8.09641 13.8986 6.67727 17.3247C5.25812 20.7508 4.88681 24.5208 5.61028 28.1579C6.33376 31.7951 8.11952 35.136 10.7418 37.7583C13.364 40.3805 16.7049 42.1663 20.3421 42.8897C23.9792 43.6132 27.7492 43.2419 31.1753 41.8227C34.6014 40.4036 37.5298 38.0004 39.5901 34.9169C41.6503 31.8335 42.75 28.2084 42.75 24.5C42.7445 19.5289 40.7674 14.7629 37.2522 11.2478C33.7371 7.73265 28.9711 5.75546 24 5.75ZM24 41.75C20.5883 41.75 17.2532 40.7383 14.4164 38.8428C11.5797 36.9474 9.3687 34.2533 8.06309 31.1013C6.75747 27.9493 6.41587 24.4809 7.08146 21.1347C7.74706 17.7885 9.38996 14.7149 11.8024 12.3024C14.2149 9.88995 17.2885 8.24705 20.6347 7.58145C23.9809 6.91586 27.4493 7.25747 30.6013 8.56308C33.7533 9.86869 36.4474 12.0797 38.3429 14.9164C40.2383 17.7532 41.25 21.0883 41.25 24.5C41.245 29.0735 39.426 33.4582 36.1921 36.6921C32.9582 39.926 28.5735 41.745 24 41.75ZM32.6644 14.8287L20.6644 20.8287C20.5198 20.9022 20.4022 21.0197 20.3288 21.1644L14.3288 33.1644C14.2715 33.2788 14.2445 33.4059 14.2502 33.5337C14.256 33.6614 14.2943 33.7856 14.3616 33.8944C14.4288 34.0032 14.5228 34.093 14.6345 34.1552C14.7463 34.2175 14.8721 34.2501 15 34.25C15.1164 34.2498 15.2313 34.2229 15.3356 34.1712L27.3356 28.1712C27.4803 28.0978 27.5978 27.9803 27.6713 27.8356L33.6713 15.8356C33.742 15.6947 33.7666 15.5351 33.7415 15.3795C33.7164 15.2239 33.6429 15.0801 33.5314 14.9686C33.4199 14.8571 33.2762 14.7836 33.1205 14.7585C32.9649 14.7334 32.8053 14.758 32.6644 14.8287ZM26.4375 26.9375L16.6725 31.8125L21.5625 22.0625L31.3275 17.1875L26.4375 26.9375Z" fill="#080705"/>
<path fill-rule="evenodd" clip-rule="evenodd" d="M16.6725 31.8125L26.4375 26.9375L31.3275 17.1875L21.5625 22.0625L16.6725 31.8125Z" fill="#080705" fill-opacity="0.2"/>
</svg>
