<svg width="48" height="49" viewBox="0 0 48 49" fill="none" xmlns="http://www.w3.org/2000/svg">
<path fill-rule="evenodd" clip-rule="evenodd" d="M10 9.32V28.188C10.386 28.054 10.836 27.904 11.326 27.756C12.84 27.296 14.834 26.8 16.5 26.8C19.256 26.8 21.836 27.642 24.242 28.428L24.31 28.448C26.788 29.258 29.09 30 31.5 30C33.618 30 36.616 29.128 38 28.68V10.016L37.988 10.004L37.962 9.994H37.942C36.382 10.468 33.642 11.2 31.5 11.2C28.744 11.2 26.164 10.358 23.758 9.572L23.69 9.552C21.212 8.742 18.91 8 16.5 8C15.128 8 13.36 8.37 11.876 8.766C11.246 8.93454 10.6205 9.11927 10 9.32ZM10 30.312L10.09 30.278C10.546 30.112 11.182 29.89 11.91 29.668C13.39 29.218 15.146 28.8 16.5 28.8C18.912 28.8 21.212 29.542 23.69 30.35L23.758 30.372C26.164 31.158 28.744 32 31.5 32C33.988 32 37.294 31.012 38.642 30.576C39.0389 30.4479 39.3847 30.1965 39.6289 29.8584C39.8731 29.5203 40.0031 29.1131 40 28.696V10.018C40 8.628 38.638 7.694 37.36 8.082C35.8 8.554 33.316 9.2 31.5 9.2C29.088 9.2 26.788 8.458 24.31 7.65L24.242 7.628C21.836 6.84 19.256 6 16.5 6C14.852 6 12.872 6.43 11.36 6.834C10.471 7.07155 9.59049 7.33971 8.72 7.638L8.68 7.652L8.668 7.656C8.668 7.656 8.664 7.658 9 8.6L8.666 7.658C8.47129 7.727 8.30272 7.8546 8.18347 8.02328C8.06421 8.19195 8.00012 8.39342 8 8.6V42C8 42.2652 8.10536 42.5196 8.29289 42.7071C8.48043 42.8946 8.73478 43 9 43C9.26522 43 9.51957 42.8946 9.70711 42.7071C9.89464 42.5196 10 42.2652 10 42V30.312Z" fill="#080705"/>
<path fill-rule="evenodd" clip-rule="evenodd" d="M10 28.188V9.32C10.6205 9.11927 11.246 8.93454 11.876 8.766C13.36 8.37 15.128 8 16.5 8C18.91 8 21.212 8.742 23.69 9.552L23.758 9.572C26.164 10.358 28.744 11.2 31.5 11.2C33.642 11.2 36.382 10.468 37.942 9.994H37.962L37.988 10.004L38 10.016V28.68C36.616 29.128 33.618 30 31.5 30C29.09 30 26.788 29.258 24.31 28.448L24.242 28.428C21.836 27.642 19.256 26.8 16.5 26.8C14.834 26.8 12.84 27.296 11.326 27.756C10.836 27.904 10.386 28.054 10 28.188Z" fill="#080705" fill-opacity="0.2"/>
</svg>
