<svg width="48" height="49" viewBox="0 0 48 49" fill="none" xmlns="http://www.w3.org/2000/svg">
<path d="M24 7.5C30.112 7.5 35 12.254 35 18.04C35 21.578 34.08 23.418 32.914 25.074C32.6433 25.4513 32.3533 25.84 32.044 26.24C31 27.606 29.802 29.178 28.936 31.48C28.7346 32.0178 28.473 32.5311 28.156 33.01L28.06 33.146C27.784 33.5367 27.4813 33.8847 27.152 34.19C26.26 35.008 25.172 35.5 24 35.5C22.39 35.5 20.952 34.586 19.94 33.146L19.846 33.01C19.5283 32.5312 19.266 32.0179 19.064 31.48C18.198 29.178 17 27.606 15.956 26.24C15.6467 25.84 15.3567 25.4513 15.086 25.074C13.922 23.418 13 21.578 13 18.038C13 12.254 17.888 7.5 24 7.5ZM29.848 34.068C30.24 33.474 30.562 32.836 30.808 32.182C31.56 30.182 32.528 28.912 33.54 27.586C33.872 27.146 34.212 26.704 34.548 26.226C35.918 24.28 37 22.046 37 18.038C37 11.08 31.142 5.5 24 5.5C16.858 5.5 11 11.078 11 18.04C11 22.044 12.082 24.28 13.452 26.224C13.788 26.704 14.128 27.148 14.462 27.584C15.472 28.912 16.442 30.184 17.192 32.184C17.438 32.836 17.76 33.474 18.152 34.068L18.606 38.62C18.74 39.9572 19.366 41.197 20.3625 42.0987C21.3591 43.0004 22.6551 43.4997 23.999 43.4997C25.3429 43.4997 26.6389 43.0004 27.6355 42.0987C28.632 41.197 29.258 39.9572 29.392 38.62L29.848 34.068ZM27.608 36.374L27.4 38.42C27.3133 39.2619 26.9175 40.0418 26.2891 40.6088C25.6607 41.1757 24.8444 41.4896 23.998 41.4896C23.1516 41.4896 22.3353 41.1757 21.7069 40.6088C21.0785 40.0418 20.6827 39.2619 20.596 38.42L20.39 36.374C21.4524 37.1044 22.7107 37.4969 24 37.5C25.2886 37.4965 26.5461 37.104 27.608 36.374ZM5.232 6.86C5.40178 6.65638 5.64547 6.52851 5.9095 6.50451C6.17353 6.48051 6.43628 6.56234 6.64 6.732L9.64 9.232C9.74446 9.31488 9.83128 9.41781 9.89537 9.53475C9.95945 9.65168 9.99951 9.78024 10.0132 9.91288C10.0268 10.0455 10.0138 10.1796 9.97494 10.3071C9.93604 10.4346 9.87202 10.5531 9.78666 10.6555C9.70129 10.758 9.59631 10.8423 9.47787 10.9036C9.35944 10.9648 9.22994 11.0018 9.09702 11.0123C8.96409 11.0228 8.8304 11.0065 8.70383 10.9646C8.57726 10.9226 8.46036 10.8558 8.36 10.768L5.36 8.268C5.15638 8.09822 5.02851 7.85453 5.00451 7.5905C4.98051 7.32647 5.06234 7.06372 5.232 6.86ZM42.768 6.86C42.9377 7.06372 43.0195 7.32647 42.9955 7.5905C42.9715 7.85453 42.8436 8.09822 42.64 8.268L39.64 10.768C39.4355 10.9303 39.1756 11.0061 38.916 10.9794C38.6563 10.9526 38.4173 10.8254 38.2502 10.6248C38.0831 10.4243 38.001 10.1663 38.0215 9.90606C38.042 9.64581 38.1635 9.40389 38.36 9.232L41.36 6.732C41.5637 6.56234 41.8265 6.48051 42.0905 6.50451C42.3545 6.52851 42.5982 6.65638 42.768 6.86ZM3 17C3 16.7348 3.10536 16.4804 3.29289 16.2929C3.48043 16.1054 3.73478 16 4 16H8C8.26522 16 8.51957 16.1054 8.70711 16.2929C8.89464 16.4804 9 16.7348 9 17C9 17.2652 8.89464 17.5196 8.70711 17.7071C8.51957 17.8946 8.26522 18 8 18H4C3.73478 18 3.48043 17.8946 3.29289 17.7071C3.10536 17.5196 3 17.2652 3 17ZM39 17C39 16.7348 39.1054 16.4804 39.2929 16.2929C39.4804 16.1054 39.7348 16 40 16H44C44.2652 16 44.5196 16.1054 44.7071 16.2929C44.8946 16.4804 45 16.7348 45 17C45 17.2652 44.8946 17.5196 44.7071 17.7071C44.5196 17.8946 44.2652 18 44 18H40C39.7348 18 39.4804 17.8946 39.2929 17.7071C39.1054 17.5196 39 17.2652 39 17ZM9.894 24.552C10.0128 24.7891 10.0326 25.0637 9.94893 25.3154C9.86529 25.567 9.6851 25.7752 9.448 25.894L6.448 27.394C6.33047 27.454 6.20223 27.4902 6.07065 27.5005C5.93907 27.5107 5.80677 27.4948 5.68137 27.4536C5.55597 27.4125 5.43996 27.347 5.34001 27.2608C5.24007 27.1746 5.15817 27.0695 5.09905 26.9515C5.03992 26.8335 5.00474 26.705 4.99552 26.5733C4.9863 26.4417 5.00323 26.3095 5.04534 26.1844C5.08744 26.0593 5.15389 25.9438 5.24085 25.8446C5.32781 25.7453 5.43356 25.6642 5.552 25.606L8.552 24.106C8.7891 23.9872 9.06369 23.9674 9.31537 24.0511C9.56704 24.1347 9.77518 24.3149 9.894 24.552ZM38.106 24.552C38.2248 24.3154 38.4326 24.1356 38.6838 24.052C38.935 23.9684 39.2091 23.9878 39.446 24.106L42.446 25.606C42.5676 25.6622 42.6766 25.7422 42.7667 25.8413C42.8568 25.9404 42.926 26.0566 42.9703 26.183C43.0146 26.3094 43.0331 26.4433 43.0246 26.577C43.0162 26.7107 42.981 26.8412 42.9211 26.961C42.8612 27.0808 42.7778 27.1874 42.676 27.2743C42.5741 27.3613 42.4559 27.4269 42.3282 27.4673C42.2005 27.5077 42.066 27.522 41.9327 27.5094C41.7993 27.4968 41.6699 27.4576 41.552 27.394L38.552 25.894C38.3154 25.7752 38.1356 25.5674 38.052 25.3162C37.9684 25.065 37.9878 24.7909 38.106 24.554" fill="#080705"/>
<path fill-rule="evenodd" clip-rule="evenodd" d="M5.9095 6.5046C5.64547 6.5286 5.40178 6.65647 5.232 6.86009C5.06234 7.0638 4.98051 7.32656 5.00451 7.59058C5.02851 7.85461 5.15638 8.0983 5.36 8.26809L8.36 10.7681C8.46036 10.8559 8.57726 10.9227 8.70383 10.9647C8.8304 11.0066 8.96409 11.0228 9.09702 11.0124C9.22994 11.0019 9.35944 10.9649 9.47787 10.9037C9.59631 10.8424 9.70129 10.7581 9.78666 10.6556C9.87202 10.5532 9.93604 10.4347 9.97494 10.3072C10.0138 10.1796 10.0268 10.0456 10.0132 9.91297C9.99951 9.78033 9.95945 9.65176 9.89537 9.53483C9.83128 9.4179 9.74446 9.31497 9.64 9.23209L6.64 6.73209C6.43628 6.56242 6.17353 6.4806 5.9095 6.5046ZM42.9955 7.59058C43.0195 7.32656 42.9377 7.0638 42.768 6.86009C42.5982 6.65647 42.3545 6.5286 42.0905 6.5046C41.8265 6.4806 41.5637 6.56242 41.36 6.73209L38.36 9.23209C38.1635 9.40398 38.042 9.64589 38.0215 9.90614C38.001 10.1664 38.0831 10.4244 38.2502 10.6249C38.4173 10.8255 38.6563 10.9527 38.916 10.9795C39.1756 11.0062 39.4355 10.9304 39.64 10.7681L42.64 8.26809C42.8436 8.0983 42.9715 7.85461 42.9955 7.59058ZM3.29289 16.293C3.10536 16.4805 3 16.7349 3 17.0001C3 17.2653 3.10536 17.5197 3.29289 17.7072C3.48043 17.8947 3.73478 18.0001 4 18.0001H8C8.26522 18.0001 8.51957 17.8947 8.70711 17.7072C8.89464 17.5197 9 17.2653 9 17.0001C9 16.7349 8.89464 16.4805 8.70711 16.293C8.51957 16.1054 8.26522 16.0001 8 16.0001H4C3.73478 16.0001 3.48043 16.1054 3.29289 16.293ZM39.2929 16.293C39.1054 16.4805 39 16.7349 39 17.0001C39 17.2653 39.1054 17.5197 39.2929 17.7072C39.4804 17.8947 39.7348 18.0001 40 18.0001H44C44.2652 18.0001 44.5196 17.8947 44.7071 17.7072C44.8946 17.5197 45 17.2653 45 17.0001C45 16.7349 44.8946 16.4805 44.7071 16.293C44.5196 16.1054 44.2652 16.0001 44 16.0001H40C39.7348 16.0001 39.4804 16.1054 39.2929 16.293ZM9.94893 25.3155C10.0326 25.0638 10.0128 24.7892 9.894 24.5521C9.77518 24.315 9.56704 24.1348 9.31537 24.0512C9.06369 23.9675 8.7891 23.9873 8.552 24.1061L5.552 25.6061C5.43356 25.6643 5.32781 25.7454 5.24085 25.8446C5.15389 25.9439 5.08744 26.0594 5.04534 26.1845C5.00323 26.3096 4.9863 26.4418 4.99552 26.5734C5.00474 26.7051 5.03992 26.8336 5.09905 26.9516C5.15817 27.0696 5.24007 27.1747 5.34001 27.2609C5.43996 27.347 5.55597 27.4126 5.68137 27.4537C5.80677 27.4949 5.93907 27.5108 6.07065 27.5005C6.20223 27.4903 6.33047 27.4541 6.448 27.3941L9.448 25.8941C9.6851 25.7753 9.86529 25.5671 9.94893 25.3155ZM38.6838 24.0521C38.4326 24.1357 38.2248 24.3155 38.106 24.5521C37.9878 24.789 37.9684 25.0651 38.052 25.3163C38.1356 25.5675 38.3154 25.7753 38.552 25.8941L41.552 27.3941C41.6699 27.4577 41.7993 27.4969 41.9327 27.5095C42.066 27.5221 42.2005 27.5077 42.3282 27.4674C42.4559 27.427 42.5741 27.3614 42.676 27.2744C42.7778 27.1874 42.8612 27.0809 42.9211 26.9611C42.981 26.8413 43.0162 26.7107 43.0246 26.5771C43.0331 26.4434 43.0146 26.3094 42.9703 26.1831C42.926 26.0567 42.8568 25.9405 42.7667 25.8414C42.6766 25.7423 42.5676 25.6622 42.446 25.6061L39.446 24.1061C39.2091 23.9879 38.935 23.9685 38.6838 24.0521Z" fill="#080705" fill-opacity="0.2"/>
<path fill-rule="evenodd" clip-rule="evenodd" d="M35 18.0401C35 12.2541 30.112 7.50009 24 7.50009C17.888 7.50009 13 12.2541 13 18.0381C13 21.5781 13.922 23.4181 15.086 25.0741C15.3567 25.4514 15.6467 25.8401 15.956 26.2401C17 27.6061 18.198 29.1781 19.064 31.4801C19.266 32.018 19.5283 32.5313 19.846 33.0101L19.94 33.1461C20.952 34.5861 22.39 35.5001 24 35.5001C25.172 35.5001 26.26 35.0081 27.152 34.1901C27.4813 33.8848 27.784 33.5368 28.06 33.1461L28.156 33.0101C28.473 32.5312 28.7346 32.0179 28.936 31.4801C29.802 29.1781 31 27.6061 32.044 26.2401C32.3533 25.8401 32.6433 25.4514 32.914 25.0741C34.08 23.4181 35 21.5781 35 18.0401Z" fill="#080705" fill-opacity="0.2"/>
<path d="M24 42.808C23.08 42.808 22.2793 42.4993 21.598 41.882C20.9167 41.2647 20.512 40.4967 20.384 39.578H27.616C27.488 40.498 27.0833 41.266 26.402 41.882C25.7207 42.498 24.92 42.8067 24 42.808ZM18 36.038C17.716 36.038 17.478 35.9427 17.286 35.752C17.094 35.5613 16.9987 35.3233 17 35.038C17.0013 34.7527 17.0967 34.5153 17.286 34.326C17.4753 34.1367 17.7133 34.0407 18 34.038H30C30.2853 34.038 30.5233 34.134 30.714 34.326C30.9047 34.518 31 34.7553 31 35.038C31 35.3207 30.9047 35.5587 30.714 35.752C30.5233 35.9453 30.2853 36.0407 30 36.038H18ZM17.116 30.5C15.2267 29.2613 13.7347 27.6907 12.64 25.788C11.5453 23.8853 10.9987 21.7893 11 19.5C11 15.872 12.26 12.7987 14.78 10.28C17.3 7.76133 20.3733 6.50133 24 6.5C27.6267 6.49867 30.7 7.75867 33.22 10.28C35.74 12.8013 37 15.8747 37 19.5C37 21.7893 36.4533 23.8853 35.36 25.788C34.2667 27.6907 32.7747 29.2613 30.884 30.5H17.116ZM17.7 28.5H30.3C31.8 27.4333 32.9587 26.1167 33.776 24.55C34.5933 22.9833 35.0013 21.3 35 19.5C35 16.4333 33.9333 13.8333 31.8 11.7C29.6667 9.56667 27.0667 8.5 24 8.5C20.9333 8.5 18.3333 9.56667 16.2 11.7C14.0667 13.8333 13 16.4333 13 19.5C13 21.3 13.4087 22.9833 14.226 24.55C15.0433 26.1167 16.2013 27.4333 17.7 28.5Z" fill="#080705"/>
</svg>
