<svg width="48" height="49" viewBox="0 0 48 49" fill="none" xmlns="http://www.w3.org/2000/svg">
<path fill-rule="evenodd" clip-rule="evenodd" d="M12.0394 21.5244C13.7419 22.5575 15.7894 22.4825 17.8219 21.3219C18.9825 19.2894 19.0575 17.2419 18.0187 15.5319C16.5 13.0138 12.87 11.6206 8.24999 11.75C8.12812 16.3775 9.52124 20 12.0394 21.5244Z" fill="#080705" fill-opacity="0.2"/>
<path fill-rule="evenodd" clip-rule="evenodd" d="M41.2312 7.26876C34.65 7.02501 29.4656 8.99563 27.2869 12.5956C25.8019 15.0481 25.9144 17.99 27.6 20.8981C30.51 22.5856 33.4519 22.6981 35.9044 21.2131C39.5044 19.0325 41.4731 13.85 41.2312 7.26876Z" fill="#080705" fill-opacity="0.2"/>
<path d="M23.0306 26.5305L27.1875 22.3812C28.875 23.298 30.5738 23.7593 32.2144 23.7593C33.7944 23.76 35.3437 23.3225 36.69 22.4955C40.8938 19.9493 43.1419 13.9737 42.7031 6.50929C42.6925 6.32611 42.615 6.15319 42.4854 6.02327C42.3559 5.89335 42.1832 5.81544 42 5.80429C34.5356 5.36366 28.56 7.61366 26.0138 11.8174C24.2869 14.6674 24.3263 18.0218 26.1281 21.3199L22.5 24.9387L19.3013 21.7399C20.55 19.3437 20.5594 16.8274 19.3013 14.7612C17.4169 11.6374 12.9994 9.96679 7.50001 10.2893C7.31462 10.2988 7.13934 10.3767 7.00808 10.508C6.87681 10.6392 6.79889 10.8145 6.78939 10.9999C6.46501 16.5049 8.13751 20.9224 11.2613 22.8124C12.2746 23.4292 13.4388 23.7536 14.625 23.7499C15.8916 23.7336 17.1355 23.412 18.2513 22.8124L21.4388 26.0112L19.1888 28.2612H10.5C10.3011 28.2612 10.1103 28.3402 9.96968 28.4808C9.82903 28.6215 9.75001 28.8122 9.75001 29.0112C9.75001 29.2101 9.82903 29.4008 9.96968 29.5415C10.1103 29.6821 10.3011 29.7612 10.5 29.7612H12.8981L15.5063 41.4874C15.615 41.9886 15.8927 42.4372 16.2927 42.758C16.6928 43.0789 17.1909 43.2525 17.7038 43.2499H30.2981C30.8106 43.2521 31.3084 43.0783 31.708 42.7574C32.1077 42.4366 32.3851 41.9883 32.4938 41.4874L35.1019 29.7499H37.5C37.6989 29.7499 37.8897 29.6709 38.0303 29.5302C38.171 29.3896 38.25 29.1988 38.25 28.9999C38.25 28.801 38.171 28.6102 38.0303 28.4696C37.8897 28.3289 37.6989 28.2499 37.5 28.2499H21.3113L23.0306 26.5305ZM27.2869 12.5955C29.4656 8.99554 34.65 7.02491 41.2313 7.26866C41.4731 13.8499 39.5044 19.0324 35.9044 21.213C33.4519 22.698 30.51 22.5855 27.6 20.898C25.9144 17.9899 25.8019 15.048 27.2869 12.5955ZM17.8219 21.3218C15.7894 22.4824 13.7419 22.5574 12.0394 21.5243C9.52126 19.9999 8.12814 16.3774 8.25001 11.7499C12.87 11.6205 16.5 13.0137 18.0188 15.5318C19.0575 17.2418 18.9825 19.2893 17.8219 21.3218ZM33.5719 29.7593L31.035 41.1724C30.9979 41.3388 30.9053 41.4875 30.7724 41.5942C30.6395 41.7009 30.4742 41.7591 30.3038 41.7593H17.7038C17.533 41.7595 17.3673 41.7015 17.234 41.5948C17.1007 41.4881 17.0078 41.3391 16.9706 41.1724L14.4375 29.7499L33.5719 29.7593Z" fill="#080705"/>
</svg>
