<svg width="41" height="42" viewBox="0 0 41 42" fill="none" xmlns="http://www.w3.org/2000/svg">
<path d="M15.4853 35.9252C15.4059 36.0626 15.2752 36.1629 15.1219 36.204C14.9686 36.2451 14.8052 36.2236 14.6677 36.1442L10.5212 33.7502C10.3838 33.6709 10.2835 33.5402 10.2424 33.3868C10.2013 33.2335 10.2228 33.0702 10.3022 32.9327C10.3815 32.7952 10.5123 32.6949 10.6656 32.6538C10.8189 32.6128 10.9823 32.6343 11.1197 32.7136L15.2662 35.1076C15.4037 35.187 15.504 35.3177 15.5451 35.471C15.5862 35.6243 15.5647 35.7877 15.4853 35.9252ZM21.5719 19.3979C21.7769 19.5163 22.0124 19.5712 22.2487 19.5557C22.4849 19.5402 22.7112 19.455 22.8991 19.3109C23.0869 19.1668 23.2278 18.9702 23.3039 18.746C23.38 18.5219 23.3879 18.2802 23.3266 18.0515C23.2653 17.8228 23.1376 17.6174 22.9596 17.4613C22.7816 17.3052 22.5613 17.2054 22.3266 17.1745C22.0919 17.1436 21.8533 17.183 21.641 17.2877C21.4286 17.3924 21.2521 17.5578 21.1338 17.7628C20.975 18.0377 20.932 18.3644 21.0142 18.6711C21.0964 18.9777 21.297 19.2392 21.5719 19.3979ZM29.9406 32.3498L24.1782 38.6289C23.9731 38.8545 23.7135 39.0237 23.4242 39.1202C23.1349 39.2167 22.8258 39.2373 22.5263 39.18C22.3259 39.1423 22.1333 39.0714 21.9563 38.9701C21.6067 38.7679 21.3359 38.4533 21.1881 38.0774L19.1155 33.1835L10.8614 28.418L5.5882 29.0708C5.18878 29.1307 4.78084 29.0535 4.43093 28.8518C4.25475 28.7493 4.097 28.6179 3.96424 28.4632C3.76487 28.2325 3.62811 27.9544 3.56705 27.6556C3.50599 27.3569 3.52267 27.0475 3.6155 26.757L6.17087 18.6263C6.25344 18.3646 6.3949 18.1253 6.58437 17.9269C6.77385 17.7284 7.0063 17.5759 7.26388 17.4813L13.7026 15.112C18.1199 8.44849 25.6075 7.00957 27.6107 6.73899C28.0052 6.68516 28.4064 6.76398 28.7512 6.96305C29.096 7.16213 29.3648 7.47017 29.5155 7.83872C30.2827 9.70878 32.7804 16.9127 29.2182 24.07L30.3857 30.8307C30.4326 31.1011 30.4168 31.3786 30.3396 31.642C30.2625 31.9053 30.126 32.1474 29.9406 32.3498ZM11.5843 27.4532L19.5896 32.0751C33.885 23.8272 29.4567 10.8283 28.4113 8.28794C28.3612 8.16433 28.2713 8.06098 28.1558 7.99429C28.0403 7.92761 27.9058 7.90141 27.7737 7.91986C25.051 8.28467 11.5795 10.9491 11.5843 27.4532ZM10.3907 27.2703C10.4137 22.9004 11.3352 19.4518 12.7454 16.7311L7.67944 18.5989C7.59354 18.6305 7.51605 18.6815 7.45292 18.7477C7.38979 18.814 7.3427 18.8939 7.31529 18.9812L4.75509 27.1143C4.72432 27.2114 4.71882 27.3147 4.73911 27.4145C4.7594 27.5142 4.80481 27.6072 4.87104 27.6845C4.93727 27.7618 5.02213 27.821 5.1176 27.8564C5.21306 27.8918 5.31598 27.9022 5.41661 27.8867L5.43351 27.8844L10.3907 27.2703ZM29.2101 31.0296L28.2947 25.7085C26.6487 28.2931 24.123 30.8154 20.35 33.0203L22.2968 37.6204L22.3032 37.6362C22.3401 37.7311 22.4006 37.815 22.479 37.88C22.5574 37.945 22.651 37.9889 22.7511 38.0076C22.8512 38.0263 22.9544 38.0191 23.0509 37.9868C23.1475 37.9545 23.2342 37.8981 23.3029 37.8229L29.0662 31.5392C29.1277 31.4709 29.1726 31.3895 29.1976 31.3012C29.2225 31.2128 29.2268 31.1199 29.2101 31.0296Z" fill="#080705"/>
<path fill-rule="evenodd" clip-rule="evenodd" d="M19.5896 32.075L11.5843 27.4531C11.5795 10.9491 25.051 8.28462 27.7737 7.91982C27.9058 7.90137 28.0403 7.92756 28.1558 7.99425C28.2713 8.06093 28.3612 8.16428 28.4112 8.28789C29.4567 10.8282 33.885 23.8272 19.5896 32.075ZM21.5719 19.3979C21.7769 19.5162 22.0124 19.5711 22.2487 19.5557C22.4849 19.5402 22.7112 19.455 22.8991 19.3109C23.0869 19.1667 23.2278 18.9702 23.3039 18.746C23.3799 18.5218 23.3879 18.2801 23.3266 18.0514C23.2653 17.8228 23.1376 17.6174 22.9596 17.4613C22.7816 17.3052 22.5613 17.2054 22.3266 17.1745C22.0919 17.1436 21.8533 17.183 21.641 17.2877C21.4286 17.3924 21.2521 17.5577 21.1338 17.7627C20.975 18.0377 20.932 18.3644 21.0142 18.671C21.0963 18.9777 21.297 19.2391 21.5719 19.3979Z" fill="#D9D9D9"/>
</svg>
