<svg width="48" height="51" viewBox="0 0 48 51" fill="none" xmlns="http://www.w3.org/2000/svg">
<path d="M39.8531 26.9944C39.8531 17.6444 32.2731 10.0664 22.9251 10.0664C13.5751 10.0664 5.99512 17.6444 5.99512 26.9944C5.99512 36.3444 13.5751 43.9224 22.9251 43.9224C32.2731 43.9224 39.8531 36.3444 39.8531 26.9944Z" stroke="#080705" stroke-width="1.24138" stroke-linecap="round" stroke-linejoin="round"/>
<path d="M32.0934 26.9937C32.0934 21.9277 27.9872 17.8237 22.9252 17.8237C17.8613 17.8237 13.7554 21.9277 13.7554 26.9937C13.7554 32.0557 17.8613 36.1617 22.9252 36.1617C27.9872 36.1617 32.0934 32.0557 32.0934 26.9937Z" fill="#080705" fill-opacity="0.2" stroke="#080705" stroke-width="1.24138" stroke-linecap="round" stroke-linejoin="round"/>
<path d="M37.7713 12.4318L23.4513 26.7537M37.7713 12.4318H41.9993M37.7713 12.4318V8.20776" stroke="#080705" stroke-width="1.24138" stroke-linecap="round" stroke-linejoin="round"/>
</svg>
