<svg width="66" height="54" viewBox="0 0 66 54" fill="none" xmlns="http://www.w3.org/2000/svg">
<path d="M9.0888 48.5055C8.93156 37.0266 10.057 30.3238 15.3557 26.0379C16.7468 24.9931 20.9601 23.5302 26.6837 26.0379C32.5024 28.5873 38.2006 42.8998 36.1473 48.6491C36.0826 48.8301 35.8737 48.945 35.6388 48.945H9.63825C9.33729 48.945 9.0921 48.7471 9.0888 48.5055Z" fill="#0C5D56"/>
<path d="M56.7049 44.3293C56.7049 43.6585 56.0277 43.1147 55.1924 43.1147H47.9324C47.0971 43.1147 46.4199 43.6585 46.4199 44.3293V47.7302C46.4199 48.4009 47.0971 48.9447 47.9324 48.9447H55.1924C56.0277 48.9447 56.7049 48.4009 56.7049 47.7302V44.3293Z" fill="#0C5D56"/>
<path d="M55.6893 31.7005C55.82 32.363 55.1203 32.9126 54.285 32.9126H48.84C48.0047 32.9126 47.305 32.363 47.4357 31.7005C47.8929 29.383 49.7021 29.0584 50.9915 28.092C51.2994 27.8613 51.8257 27.8613 52.1334 28.092C53.4229 29.0584 55.2321 29.383 55.6893 31.7005Z" fill="#0C5D56"/>
<path fill-rule="evenodd" clip-rule="evenodd" d="M5.28003 47.9731C5.28003 47.4365 5.82178 47.0015 6.49003 47.0015H59.9225C60.5908 47.0015 61.1325 47.4365 61.1325 47.9731C61.1325 48.5097 60.5908 48.9448 59.9225 48.9448H6.49003C5.82178 48.9448 5.28003 48.5097 5.28003 47.9731Z" fill="#084943"/>
<path fill-rule="evenodd" clip-rule="evenodd" d="M51.8651 26.5971C51.698 26.5971 51.5626 26.7059 51.5626 26.8401C51.5626 26.9742 51.698 27.083 51.8651 27.083C51.9632 27.083 52.0504 27.0464 52.1077 26.9853C52.5091 26.5562 53.2676 26.4697 53.8019 26.7921C54.3362 27.1144 54.4439 27.7235 54.0425 28.1526C53.5478 28.6813 52.7565 29.0263 51.8651 29.0263C50.3615 29.0263 49.1426 28.0475 49.1426 26.8401C49.1426 25.6326 50.3615 24.6538 51.8651 24.6538C52.5333 24.6538 53.0751 25.0888 53.0751 25.6255C53.0751 26.1621 52.5333 26.5971 51.8651 26.5971Z" fill="#C4902D"/>
<path d="M55.7976 34.613C55.7976 33.9422 55.1205 33.3984 54.2851 33.3984H48.8401C48.0048 33.3984 47.3276 33.9422 47.3276 34.613V41.4147C47.3276 42.0855 48.0048 42.6293 48.8401 42.6293H54.2851C55.1205 42.6293 55.7976 42.0855 55.7976 41.4147V34.613Z" fill="#0C5D56"/>
<path d="M57.0074 32.1838C57.0074 31.513 56.3303 30.9692 55.4949 30.9692H47.6299C46.7946 30.9692 46.1174 31.513 46.1174 32.1838V33.1555C46.1174 33.8263 46.7946 34.3701 47.6299 34.3701H55.4949C56.3303 34.3701 57.0074 33.8263 57.0074 33.1555V32.1838Z" fill="#C4902D"/>
<path d="M57.6125 42.386C57.6125 41.7152 56.9353 41.1714 56.1 41.1714H47.025C46.1896 41.1714 45.5125 41.7152 45.5125 42.386V43.3576C45.5125 44.0284 46.1896 44.5722 47.025 44.5722H56.1C56.9353 44.5722 57.6125 44.0284 57.6125 43.3576V42.386Z" fill="#C4902D"/>
<path fill-rule="evenodd" clip-rule="evenodd" d="M38.4568 12.8403C39.0278 12.4817 39.8493 12.5662 40.2917 13.029C41.1576 13.9349 41.7518 14.9872 41.9766 16.1495C42.2014 17.3119 42.033 18.461 41.5506 19.5382C41.3042 20.0886 40.554 20.3728 39.8751 20.173C39.1961 19.9733 38.8455 19.3652 39.0919 18.8149C39.4354 18.0478 39.5438 17.2601 39.3925 16.4779C39.2412 15.6956 38.8407 14.9726 38.224 14.3276C37.7816 13.8648 37.8858 13.1989 38.4568 12.8403Z" fill="#966F24"/>
<path fill-rule="evenodd" clip-rule="evenodd" d="M41.1816 9.65463C41.6765 9.22156 42.5231 9.18682 43.0724 9.57702C45.268 11.1367 46.808 13.2084 47.2846 15.6058C47.7615 18.0032 47.0995 20.347 45.6147 22.3616C45.2432 22.8656 44.4238 23.0367 43.7845 22.7439C43.1452 22.451 42.9281 21.805 43.2996 21.301C44.5025 19.6689 45.0129 17.8114 44.6393 15.9327C44.2657 14.054 43.0588 12.4088 41.28 11.1453C40.7307 10.7551 40.6867 10.0877 41.1816 9.65463Z" fill="#966F24"/>
<path d="M12.0383 18.6232C12.9613 23.5023 18.635 26.8567 24.7108 26.1156C30.7867 25.3744 34.9639 20.8182 34.0409 15.9391L33.4475 12.8025C32.5245 7.92337 26.8508 4.56891 20.775 5.31011C14.6991 6.05132 10.5219 10.6075 11.4449 15.4866L12.0383 18.6232Z" fill="#966F24"/>
<path d="M33.7541 14.4222C33.7541 14.4222 11.3898 17.1504 11.8118 17.0989C9.7286 9.91574 14.7359 5.8211 20.795 5.08192C26.8542 4.34277 33.4944 7.30549 33.7541 14.4222Z" fill="#EBEBEB"/>
<path d="M27.4685 19.4582C26.1437 18.271 23.8713 18.171 22.3929 19.2349C20.9145 20.2988 20.7901 22.1236 22.1148 23.3108L26.4409 27.1874L31.7945 23.3347L27.4685 19.4582Z" fill="#C4902D"/>
<path d="M36.6843 27.8641C42.4115 34.0925 40.8606 40.8719 29.5247 42.2374C27.536 42.477 19.6208 43.1955 15.8023 39.3627C11.984 35.5298 12.5087 30.8681 16.9956 29.3014C23.7703 26.9361 25.019 32.5115 28.4955 32.6525C28.5828 32.656 28.6775 32.6362 28.7535 32.6016C32.3872 30.9443 21.9879 27.8229 26.2433 24.0312C30.5449 20.1984 32.6245 23.4492 36.6843 27.8641Z" fill="#EBEBEB"/>
</svg>
