<svg width="72" height="54" viewBox="0 0 72 54" fill="none" xmlns="http://www.w3.org/2000/svg">
<path d="M31.4575 33.5754C31.0225 33.1404 31.0225 32.4352 31.4575 32.0003L35.4694 27.9883C35.9044 27.5534 36.6096 27.5534 37.0445 27.9883L41.0565 32.0003C41.4914 32.4352 41.4914 33.1404 41.0565 33.5754L36.257 38.3749L31.4575 33.5754Z" fill="#B7FF2A"/>
<path d="M31.4575 44.7463C31.0225 44.3113 31.0225 43.6061 31.4575 43.1712L36.257 38.3717L41.0565 43.1712C41.4914 43.6061 41.4914 44.3113 41.0565 44.7463L37.0445 48.7582C36.6096 49.1932 35.9044 49.1932 35.4694 48.7582L31.4575 44.7463Z" fill="#B7FF2A"/>
<path d="M0.887695 2.68823L5.93204 1.79878C9.56668 1.15789 13.0327 3.5848 13.6736 7.21944L21.4862 51.5272L16.4418 52.4167C12.8072 53.0576 9.34121 50.6306 8.70032 46.996L0.887695 2.68823Z" fill="#B7FF2A"/>
<path d="M59.0461 7.28129C59.687 3.64665 63.153 1.21974 66.7876 1.86062L71.832 2.75008L64.0194 47.0579C63.3785 50.6925 59.9125 53.1194 56.2778 52.4785L51.2335 51.5891L59.0461 7.28129Z" fill="#B7FF2A"/>
</svg>
